# xmcd
#
# Track frame offsets:
#	182
#	20075
#	29440
#	41547
#	57015
#	68622
#	84165
#	99405
#	113822
#	125782
#	137750
#	155410
#	170420
#	188362
#
# Disc length: 2639 seconds
#
# Revision: 0
# Processed by: cddbd v1.4PL0 Copyright (c) Steve Scherf et al.
# Submitted via: dBpowerAMP V4.0
#
DISCID=ae0a4d0e
DTITLE=Mario Lanza - The great Mario Lanza
DYEAR=1900
DGENRE=Classical
TTITLE0=O sole mio
TTITLE1=La donna e'mobile
TTITLE2=Santa Lucia
TTITLE3=Core 'ngrato
TTITLE4=Funniculi' funicula'
TTITLE5=La sagnola
TTITLE6=Torna a Surriento
TTITLE7=Marechaire
TTITLE8=Parleami d'amore Mariu'
TTITLE9=Ave Maria
TTITLE10=Mattinata
TTITLE11=Arrividerci Roma
TTITLE12=Granada
TTITLE13=Because
EXTD=
EXTT0=
EXTT1=
EXTT2=
EXTT3=
EXTT4=
EXTT5=
EXTT6=
EXTT7=
EXTT8=
EXTT9=
EXTT10=
EXTT11=
EXTT12=
EXTT13=
PLAYORDER=
